<?xml version="1.0" encoding="UTF-8"?>
<svg width="100%" height="100%" viewBox="0 0 1440 800" fill="none" xmlns="http://www.w3.org/2000/svg">
    <rect width="1440" height="800" fill="#0A0A0A"/>
    <defs>
        <radialGradient id="glow" cx="50%" cy="50%" r="50%" fx="50%" fy="50%">
            <stop offset="0%" stop-color="rgba(255,165,0,0.5)" />
            <stop offset="100%" stop-color="rgba(0,0,0,0)" />
        </radialGradient>
        <filter id="glowEffect" x="-50%" y="-50%" width="200%" height="200%">
            <feGaussianBlur stdDeviation="4" result="coloredBlur"/>
            <feMerge>
                <feMergeNode in="coloredBlur"/>
                <feMergeNode in="SourceGraphic"/>
            </feMerge>
        </filter>
    </defs>
    
    <path d="M0 700 C400 750, 800 550, 1440 650" stroke="rgba(255,255,255,0.4)" stroke-width="2" fill="none" filter="url(#glowEffect)" />
    <path d="M0 600 C350 700, 750 500, 1440 600" stroke="rgba(255,255,255,0.3)" stroke-width="2" fill="none" filter="url(#glowEffect)" />
    <path d="M0 500 C300 650, 900 450, 1440 550" stroke="rgba(255,255,255,0.5)" stroke-width="2" fill="none" filter="url(#glowEffect)" />
    <path d="M0 400 C250 600, 850 350, 1440 500" stroke="rgba(255,255,255,0.4)" stroke-width="2" fill="none" filter="url(#glowEffect)" />
    <path d="M0 300 C450 550, 950 250, 1440 450" stroke="rgba(255,128,0,0.7)" stroke-width="3" fill="none" filter="url(#glowEffect)" />
    <path d="M0 200 C500 400, 1100 150, 1440 350" stroke="rgba(255,255,255,0.4)" stroke-width="2" fill="none" filter="url(#glowEffect)" />
    <path d="M0 100 C350 300, 1000 50, 1440 250" stroke="rgba(255,255,255,0.3)" stroke-width="2" fill="none" filter="url(#glowEffect)" />
</svg>
